<?xml version="1.0" encoding="UTF-8"?>
<!DOCTYPE svg PUBLIC "-//W3C//DTD SVG 1.1//EN" "http://www.w3.org/Graphics/SVG/1.1/DTD/svg11.dtd">
<!-- Creator: CorelDRAW 2020 (64-Bit) -->
<svg xmlns="http://www.w3.org/2000/svg" xml:space="preserve" width="374.866mm" height="207.433mm" version="1.1" style="shape-rendering:geometricPrecision; text-rendering:geometricPrecision; image-rendering:optimizeQuality; fill-rule:evenodd; clip-rule:evenodd"
viewBox="0 0 8434.64 4667.34"
 xmlns:xlink="http://www.w3.org/1999/xlink"
 xmlns:xodm="http://www.corel.com/coreldraw/odm/2003">
 <defs>
  <style type="text/css">
   <![CDATA[
    .fil0 {fill:white}
   ]]>
  </style>
 </defs>
 <g id="Слой_x0020_1">
  <metadata id="CorelCorpID_0Corel-Layer"/>
  <path class="fil0" d="M-0 0l8434.64 0 0 4667.34 -8434.64 0 0 -4667.34zm1849.65 316.4c0,47.73 2.02,25.74 5.9,45.53 2.36,12.02 -2,10.65 3.55,22.16 3.08,6.39 1.65,0.41 3.47,9.39l14.61 49.67c2.46,13.03 0.54,9.65 4.68,21.03 4.48,12.3 2.69,31.22 7.61,43.82 5.96,15.29 0.63,31.92 4.84,46.59 5.73,19.99 3.85,22.9 4.56,46.87 0.43,14.36 3.71,32.52 4.34,47.09 0.71,16.53 2.16,29.99 2.16,49.27 -3.81,0.89 -5.15,1.01 -8.77,1.95 -0.57,0.15 -1.15,0.27 -1.71,0.44l-27.88 4.26c-7.42,0.82 -11.98,4.03 -17.89,5.68 -7.97,2.21 -12.77,1.48 -20.58,3l-35.31 11.84c-8.01,2.39 -11.25,1.09 -18.86,4.71 -3.29,1.57 -1.45,1.55 -7.22,3.49l-67.96 26.33c-5.53,2.68 -2.92,1.25 -9.33,3.53l-11.81 5.34c-0.06,0.02 -4.55,1.43 -4.89,1.54 -5.82,1.95 -3.44,1.02 -7.65,3.07 -4.86,2.36 -0.09,0.44 -4.22,2.21l-4.77 1.66c-0.53,0.18 -1.14,0.29 -1.67,0.48l-37.86 17.86c-16.82,9.81 -38.74,17.02 -57.21,26.36 -5.06,2.56 -10.06,5.4 -15.13,8.44 -3.14,1.88 -1.29,1.32 -6.71,4l-80.23 44.06c-2.57,1.4 -0.92,0.16 -4.1,2.33 -0.38,0.25 -0.86,0.65 -1.22,0.92 -0.36,0.26 -0.82,0.7 -1.17,0.97 -0.65,0.5 -0.82,0.92 -3.57,2.86l-22.46 13.97c-2.35,1.52 -4.2,2.6 -6.56,4.16l-56.66 39.77c-0.35,0.27 -0.87,0.64 -1.22,0.92l-4.84 3.74c-19.6,16 -40.01,29.15 -59.01,45.99l-44.5 39.08c-5.05,4.24 -6.69,7.02 -12.25,11.32 -30.8,23.82 -55.41,55.81 -82.18,82.83l-27.01 30.85c-18.27,21.09 -37.14,41.93 -53.11,64.76l-35.72 47.86c-3.55,5.04 -5.88,8.87 -9.52,14.05 -1.68,2.39 -2.65,3.98 -4.36,6.35l-21.97 35.89c-0.24,0.4 -0.56,0.94 -0.8,1.34l-6.96 12.33c-0.24,0.39 -0.62,0.89 -0.87,1.27l-1.79 2.5c-0.25,0.38 -0.63,0.88 -0.87,1.28l-17.41 29.73c-0.23,0.42 -0.53,0.97 -0.77,1.38 -0.23,0.41 -0.56,0.94 -0.8,1.35l-32.77 63.66c-2.09,5.53 -1.05,3.72 -3.96,8.9 -2.13,3.79 -1.26,0.66 -3.6,7.11l-4.97 12.17c-2.16,4.25 -0.33,0.34 -2.03,4.4l-21.56 55.58c-0.66,2.5 -0.24,2.5 -1.15,5.28 -1.97,6.04 -5.42,8.73 -6.93,16.65l-21.71 72.58c-2.47,12.3 0.9,7.79 -4.17,19.4 -4.57,10.48 -1.54,8.65 -3.37,20.2 -1.08,6.8 -4.13,10.52 -5.68,17.89 -1.7,8.08 -1.27,11.95 -2.67,20.9 -1.17,7.49 -4.48,10.87 -5.66,17.91 -1.23,7.36 0.14,14.99 -0.97,22.61 -2.39,16.51 -5.73,21.52 -5.86,41.28 -0.16,22.96 -4.88,43.02 -4.49,66.39l3.18 44.06c2.24,14.81 -0.36,31.6 3.31,43.83 4.75,15.83 3.17,26.46 8.03,39.11 2.94,7.66 2.83,12.36 4.26,19.32 2.49,12.08 3.54,6.72 6.14,17.43l11.14 36c2.27,4.34 0.72,-0.7 3.42,7.29 1.47,4.36 1.29,5.79 2.97,9.88l70.91 117.67c3.66,4.33 6.73,8.45 10.39,13.18l47.52 46.77c2.49,1.97 3.33,2.38 6.14,4.58l5.73 4.99c0.33,0.29 0.78,0.74 1.11,1.03l7.15 5.71c0.5,0.38 1.91,1.49 2.43,1.85l27.62 17.38c0.46,0.21 1.06,0.4 1.53,0.61 0.47,0.21 1.06,0.4 1.53,0.62 0.45,0.21 1.04,0.43 1.48,0.66 12.53,6.33 26.08,15.75 40.04,19.96l28.02 8.42c4.97,0.78 4.41,0.26 9.1,1.61 21.6,6.22 73.26,8.37 94.1,3.7 9.7,-2.18 7.31,-2.98 12.9,-4.25 5.81,-1.31 9.59,-0.23 15.58,-1.56 7.82,-1.74 6.71,-3.09 12.07,-5.07 6.03,-2.23 7.76,-1.52 14.47,-2.68 9.43,-1.63 21.95,-8.77 30.6,-12.26 3.96,-1.6 5.74,-1.45 8.46,-2.25 9.37,-2.76 15.93,-8.11 24.39,-12.04l47.69 -25.18c0.38,-0.25 0.88,-0.63 1.26,-0.88l115.32 -88.26c2.1,-1.98 2.38,-2.13 4.51,-4.06l12.28 -11.29c0.32,-0.31 0.77,-0.75 1.08,-1.06l52.31 -54.84c0.29,-0.34 0.68,-0.83 0.97,-1.17l161.48 -237.11 26.52 -48.48c1.1,-1.96 1.66,-3.03 2.96,-5.61l26.83 -52.47c14.99,-25.88 26.87,-54.8 40.68,-81.47 2.1,-4.06 3.74,-6.34 6.05,-11.09l45.89 -95.55c2.42,-4.3 1.08,-0.98 3.2,-5.38l34.07 -73.08c0.23,-0.42 0.57,-0.93 0.79,-1.35l6.59 -14.84c2.13,-4.25 2.86,-7.3 5.12,-12.02l75.62 -170.82c1.55,-3.67 1.09,-3.53 2.08,-6.49l7.62 -18.1c1.81,-5.13 -0.81,0.65 2.63,-5.94l29.28 -67.16c0.21,-0.44 0.54,-0.95 0.74,-1.4l9.91 -24.37c0.96,-2.95 0.55,-2.84 2.11,-6.46l47.15 -122.14c2.5,-5.88 1.19,-7.5 3.31,-13.84 2,-5.98 2.99,-5.28 4.78,-12.36 1.56,-6.18 2.22,-9.75 2.22,-17.06 16.37,-4.37 5.84,-5.84 28.44,-2.74 11.36,1.56 20.99,1.26 31.51,2.79l41.68 9.75c8.88,4.25 21.35,3.94 40.07,13.5 14.69,7.49 19.39,6.2 39.49,18.37 17.13,10.36 34.75,19.9 49.74,33.84 15.38,14.3 27.75,29.48 38.96,46.76 11.54,17.76 19.63,46.36 23.63,66.38 2.63,13.15 6.24,9.17 6.51,27.78 0.23,16.13 6.41,24.94 6.41,30.02l0 98.58c0,11.62 -3.03,16.68 -5.23,26.92 -3.16,14.75 -1.13,29.76 -6.04,45.39l-12.74 53.7c-4.15,8.94 -2.01,1.27 -4.14,13 -1.3,7.13 -1.56,6.9 -4.37,12.77 -3.27,6.84 -2.11,5.9 -3.93,13.21l-66.23 145.92 -34.83 57.31c-0.24,0.41 -0.54,0.96 -0.78,1.36l-30.26 46.89c-0.24,0.4 -0.57,0.93 -0.81,1.33l-37.8 60.78c-2.25,3.46 -0.99,1.52 -3.26,5.31l-26.79 58.93c-1.48,5.38 -2.32,23.49 -3.48,30.84 -2.7,17.05 0.47,41.83 6.92,56.57l14.83 32.31c11.32,17.06 24.45,30.98 41.5,42.08l2.65 1.63c0.39,0.25 0.93,0.57 1.33,0.82l29.87 12.99c7.7,1.73 10.09,6.41 19.3,6.41l53.57 0c6.76,0 2.52,-2.04 10.17,-4.83l51.87 -25.28c3.2,-2.01 5.62,-3.77 8.5,-6.51l8.51 -8.63c0.32,-0.31 0.78,-0.74 1.1,-1.04l76.1 -78.19c0.31,-0.32 0.74,-0.78 1.04,-1.1l81.43 -72.86c0.45,-0.43 1.73,-1.67 2.19,-2.09 18.41,-16.87 39.21,-30.58 57.79,-47.21 14.54,-13.03 36,-26.59 52.61,-37.4 9.09,-5.92 18.96,-14.11 29.03,-18.12l10.34 -4.66c4.63,-2.47 -0.41,-0.17 4.27,-2.16l45.25 -21.18c0.49,-0.2 1.06,-0.39 1.58,-0.57 0.53,-0.18 1.12,-0.31 1.67,-0.47 15.78,-4.83 31.25,-12.26 46.72,-15.43l47.94 -14.2c16.06,-2.13 10.7,0.58 26.97,-5.17 16.27,-5.75 63.31,-4.17 82.55,-1.94 17.69,2.05 6.71,0.52 18.06,5.51l14.87 6.56c26.54,15.84 40.98,40.29 51.86,68.15l11.47 35.68c3.05,8.39 0.79,11.47 2.35,21.22 1.13,7.07 4.73,10.78 5.72,17.86l6.65 149.79 -4.87 93.71c-2.92,21.37 -0.17,47.67 -4.03,70.97 -1.69,10.21 -3.98,6.9 -4.07,21.65 -0.3,45.85 -4.33,47.27 -8.25,90.33 -1.11,12.25 -1.08,9.93 -3.52,20.05 -3.57,14.81 -1.17,32.59 -5.79,45.64 -3.01,8.5 -3.76,11.03 -3.76,21.95 -15.07,1.25 -19.66,4.53 -30.99,7.59 -8.08,2.18 -14.92,1.53 -22.95,4.91 -12.26,5.17 -30.77,8.27 -44.05,11.66l-31.81 11.05c-8.36,3.02 -13.03,2.57 -21.61,6.25 -6.03,2.59 -3.39,1.71 -9.54,3.32l-101.91 37.38c-4.24,1.55 -0.68,0.19 -4.35,2.08l-40.57 17.29c-0.48,0.2 -1.05,0.41 -1.55,0.59 -0.52,0.19 -1.11,0.32 -1.65,0.49 -0.55,0.18 -1.15,0.27 -1.71,0.43 -6.28,1.91 -3.13,0.48 -9.27,3.59l-71.45 31.42c-2.51,1.07 -2.29,0.79 -4.71,1.71l-53.47 25.81c-0.43,0.22 -0.98,0.51 -1.42,0.72 -0.45,0.22 -1.02,0.46 -1.48,0.66l-126.65 66.21c-0.4,0.24 -0.95,0.55 -1.35,0.79 -0.4,0.24 -0.95,0.55 -1.35,0.79 -0.55,0.33 -2.12,1.29 -2.67,1.62l-259.64 173.24c-0.36,0.27 -0.85,0.66 -1.21,0.93l-60.02 44.98c-2.61,2.32 -0.8,0.87 -3.4,3.04l-24.8 18.06c-0.33,0.29 -0.78,0.74 -1.1,1.04l-113.22 92.51c-1.95,1.67 -5.32,4.89 -7.8,7.2l-68.9 61.82c-0.49,0.4 -1.93,1.48 -2.41,1.88l-86.59 82.7c-27.89,27.89 -57.39,53.68 -84.34,82.81l-50.33 54.68c-0.31,0.32 -0.75,0.77 -1.06,1.08 -0.31,0.31 -0.77,0.75 -1.09,1.05 -0.32,0.3 -0.8,0.72 -1.12,1.02 -5.18,4.77 -8.4,7.54 -13.12,12.6 -2.27,2.44 -3.87,4.52 -6.11,6.74l-26.79 28.92c-0.29,0.33 -0.74,0.78 -1.04,1.1l-54.6 61.12c-0.44,0.44 -1.75,1.66 -2.19,2.09l-103.88 121.13c-0.28,0.35 -0.68,0.84 -0.95,1.19l-17.25 21.32c-2.4,2.74 -4.33,5.29 -6.63,8.37l-148 216.3c-0.23,0.43 -0.52,0.97 -0.75,1.39 -0.23,0.42 -0.56,0.95 -0.79,1.35l-4.38 8.48c-1.98,4.75 -0.05,1.31 -2.56,6.01l-16.89 34.54c-0.22,0.43 -0.52,0.97 -0.73,1.41 -0.21,0.45 -0.45,1.02 -0.65,1.49l-50.77 144.24 -9.23 46.49c-2.13,10.73 -3.94,10.62 -5.96,21.9 -1.86,10.42 -0.03,15.98 -3.2,24.66 -5.89,16.11 -3.39,33.1 -4.29,51.42 -0.59,11.98 -4.34,12.16 -4.34,23.51 0,26.03 -2.04,40.66 3.39,65.18 3.5,15.8 -2.03,35.59 2.49,51.08l4.94 25.06c0.45,7.42 2,11.22 4.56,16.86 6.27,13.77 6.86,33.93 14.43,47.72l12.18 32.82c0.2,0.47 0.47,1.01 0.68,1.46l79.68 111.05 19.04 15.24c4.81,3.72 7.37,5.27 12.73,8.7l11.83 7.45c0.41,0.24 0.95,0.55 1.35,0.8 2.49,1.49 2.19,1.4 5.3,3.27l13.59 7.84c2.38,0.92 5.5,1.43 8.19,2.52 0.47,0.19 1.04,0.44 1.49,0.65l13.49 5.8c8.8,2.79 5.54,3.86 15.55,5.88 6.86,1.38 11.19,1.47 17.55,3.88 33.82,12.83 76.66,4.31 111.12,4.61 16.41,0.15 59.4,-6.02 74.08,-11.64 8.75,-3.35 20.75,-3.93 28.84,-7.59l17.1 -4.33c18.21,-5.63 34.21,-14.56 52.34,-20.52 1.86,-0.61 3.3,-0.89 4.89,-1.54l67.47 -33.25c1.68,-0.8 4.85,-1.82 6.19,-2.38l22.54 -11.75c2.88,-1.43 3.1,-1.16 5.97,-2.6 5.8,-2.9 2.88,-2.38 9.67,-5.33l46.9 -23.81c4.05,-2.11 -0.41,0.33 4.08,-2.35l65.13 -35.59c2.5,-1.42 2.01,-1.33 5.29,-3.29l26.92 -15.94c3.22,-1.6 2.05,-0.97 4.22,-2.21l26.7 -16.16c2.78,-1.76 2.94,-1.88 5.26,-3.31 1.79,-1.1 1.94,-1.14 3.98,-2.45l30.46 -20.97c3.75,-2.55 4.72,-3.16 9.1,-5.9l25.35 -17.51c2.78,-1.92 5.51,-4.3 8.52,-6.48 21.24,-15.33 51.55,-34.49 71.28,-50.87 0.34,-0.28 0.8,-0.72 1.14,-1.01l34.41 -25.6c2.5,-2.08 1.33,-1.31 3.44,-2.99 0.35,-0.28 0.83,-0.69 1.19,-0.96l28.78 -20.5c0.36,-0.27 0.86,-0.66 1.22,-0.92l58.06 -42.66c11.42,-8.81 20.8,-16.69 33.16,-24.7l11.95 -9.47c0.35,-0.28 0.86,-0.65 1.22,-0.92 0.36,-0.27 0.87,-0.65 1.23,-0.92l25.64 -19.36c0.33,-0.29 0.79,-0.73 1.12,-1.03 0.33,-0.3 0.78,-0.74 1.1,-1.05 0.32,-0.3 0.77,-0.75 1.09,-1.05l12.71 -10.86c0.36,-0.27 0.87,-0.64 1.23,-0.92 7.56,-5.9 -5.04,4.07 2.37,-1.91l2.32 -1.96c0.35,-0.28 0.83,-0.68 1.19,-0.95l214.82 -190.2c14.16,-11.64 82.82,-83.94 90.61,-93.68l4.05 -4.52c0.31,-0.31 0.77,-0.74 1.09,-1.05 0.44,-0.44 1.76,-1.64 2.21,-2.08l109.29 -122.15c2.73,-3.44 3.51,-4.78 6.61,-8.39 0.78,-0.91 2.02,-2.3 3.03,-3.4l4.19 -4.39c13.74,-15.01 24.86,-32.21 37.63,-48.09l100.06 -144.23c2.48,-4.01 0.61,-1.15 2.23,-4.2 2.58,-4.84 0.23,-1.08 3.05,-5.52l16.69 -26.17c2.07,-3.42 2.86,-5.62 5.29,-9.71l16.24 -26.62c1.98,-2.97 3.93,-6.06 5.78,-9.22l26.52 -50.63c2.02,-3.88 0.85,-1.44 3.2,-5.38 2.16,-3.62 0.44,-0.43 2.35,-4.08l37.51 -76.06c0.2,-0.47 0.44,-1.04 0.65,-1.49 0.21,-0.44 0.5,-0.98 0.73,-1.42l3.8 -6.91c0.83,-2.06 1.1,-4.06 1.99,-6.58l38.09 -90.49c2.98,-5.55 3.07,-2.89 4.9,-10.1l38.98 -106.74c1.8,-4.19 2.46,-3.56 3.87,-8.99l3.25 -11.75c3.14,-6.92 1.97,-2.27 4.02,-10.98 1.34,-5.66 1.25,-6.09 3.72,-11.28l4.64 -14.65c0.13,-0.63 0.17,-1.21 0.32,-1.82l20.58 -58.71c4.44,-22.68 19.8,-64.97 21.88,-78.84l12.69 -45.17c3.56,-9.89 0.96,-14.77 5.25,-24.75 5.15,-11.96 10.55,-48.16 15.88,-61.27 3.53,-8.69 2.24,-10.02 10.11,-13.46 15.67,-6.85 77.12,-3.12 97.6,-3.12 10.98,0 14.63,2.22 23.25,4.6 20.58,5.7 14.48,0.96 43.72,12 21.82,8.25 54.89,29.91 63.75,51.96l14.7 43.16c1.71,13.53 4.25,14.36 6.17,23.83 1.95,9.62 0.22,14.67 3.4,24.46 4.58,14.08 5.23,36.03 9.75,48.11 4.54,12.15 0.16,24.49 5.13,37.73 3.04,8.1 2.52,1.07 3.62,11.38 3.92,36.84 4.7,27.64 7.82,50.04 1.27,9.11 0.66,18.04 2.96,24.89l4.57 23.29c0.95,9.97 4.98,12.96 6.23,23.77 2.09,18.12 13.51,54.89 20.91,71.24 6.72,14.86 12.67,31.73 22.97,43.47 2.49,2.84 4.1,5.33 6.56,8.44l13.11 14.75c9.08,10.52 25.22,20.79 37.68,26.6 0.6,0.28 2.44,0.97 3.05,1.24 11.8,5.27 15.71,3.97 24.78,7.36 15.88,5.94 20.37,6.98 40.17,6.98 18.78,0 32.28,-2.55 48.11,-7.61l28.94 -13.91c12.35,-6.83 29.15,-21.58 38.07,-32.64l11.31 -16.55c12.42,-17.51 26.64,-45.53 33.58,-64.99l17.98 -54.88c3.16,-7.29 1.98,-0.4 4.4,-10.6 0.92,-3.9 1.01,-7.97 2.53,-12.47l6.4 -21.46c1.41,-6.19 2.82,-5.58 4.57,-10.43l9.21 -33.64c2.77,-13.27 4.63,-7.51 7.08,-20.77 3.7,-19.98 11.18,-35.74 15.29,-55.43l11.32 -33.69c5.72,-15.67 6.46,-30.49 12.64,-45.22 2.62,-6.25 1.95,-2.88 3.31,-9.55l9.13 -33.73c2.4,-9.82 4.96,-11.03 6.47,-21.39 1.43,-9.82 4.23,-12.08 6.63,-23.37 0.57,-2.68 1.19,-6.21 2.76,-10.09l12.3 -45.56c0.99,-5.02 2.15,-5.46 4.27,-10.73 5.36,-13.33 7.31,-33.32 11.66,-46.2l6.14 -21.72c2.08,-9.8 5.32,-12.87 6.75,-21.11l11.61 -46.25c2.96,-7.58 2.28,-16.32 5.19,-24.81l5.31 -22.55c1.24,-12.91 5.24,-8.91 6.34,-23.66l5.26 -22.59c4.31,-10.85 1.66,-13.14 3.85,-24.01 1.99,-9.91 5.66,-6.46 5.91,-21.94 0.33,-20.05 1.85,-11.44 5.43,-24.57 3.57,-13.09 1.67,-23.28 7.2,-42.09 3.37,-11.45 0.97,-21.88 4.39,-32.04 4.91,-14.57 1.98,-24.34 5.18,-37.68 3.7,-15.42 6.29,-11.17 7.66,-35.2 1.03,-17.98 2.23,-10.24 5.6,-22.26 2.46,-8.75 -0.51,-19.07 1.88,-28.13l7.22 -35.64c2.97,-15.65 5.31,-18.17 6.91,-35.95 1.15,-12.75 5.23,-8.75 6.33,-23.67 1.17,-15.89 3.24,-11.38 5.88,-21.98 2.18,-8.72 1.64,-15.53 4.26,-23.6l5.22 -22.64c1.1,-5.81 3.07,-5.92 6.72,-23.28l7.89 -26.4c0.68,-3.34 3.54,-5 6.21,-17.36l30.08 -83.49c7.8,-18.39 14.71,-36.63 24.71,-54.58l50.5 -86.65c0.26,-0.37 0.63,-0.88 0.89,-1.25 0.26,-0.38 0.61,-0.9 0.86,-1.28l5.86 -9.14c0.26,-0.37 0.64,-0.87 0.9,-1.24l34.36 -44.93c0.28,-0.34 0.68,-0.84 0.96,-1.18l24.71 -28.86c3.51,-3.71 3.62,-3.52 7.67,-7.33l59.43 -54.14c20.66,-13.93 41.46,-26.6 64.7,-36.02l8.99 -3.87c12.22,-6.56 26.63,-14.22 39.82,-18.04l63.43 -22.28c10.26,-2.21 11.67,-5.28 22.62,-7.38l11.43 -3.57c7.51,-3.63 14.6,-2.61 22.56,-5.29l24.22 -5.78c9.97,-2.27 11.27,-5.08 21.27,-6.59 10.29,-1.56 15.78,-0.35 24.34,-3.52 12.73,-4.71 7.03,-2.89 23.74,-4.12 8.65,-0.64 14.44,-3.92 24.47,-5.53l54.95 -2.91c12.1,-0.1 13.87,-2.35 25.68,-2.35l53.61 4.42c14.95,1.12 6.52,4.48 21.53,6.33 18.2,2.24 45.12,14.96 64.16,21.56l285.64 145.09c5.49,1.23 5.6,-0.08 10.93,1.92 6.89,2.6 0.1,2.27 10.12,4.88 4.38,1.14 8.17,1.13 12.64,2.36l35.85 7.01c8.38,1.35 13.19,5.89 24.11,5.89 23.83,0 61.96,3.8 84.41,-3.44 8.71,-2.81 -1.79,-1.02 8.06,-2.66 16.97,-2.82 21.06,0.24 37,-5.86 9.43,-3.61 7.49,-1.98 18.09,-3.34l122.55 -38.17c0.43,-0.21 0.92,-0.58 1.35,-0.79 0.43,-0.22 0.9,-0.61 1.32,-0.82l31.61 -11.25c8.02,-3.41 -1.26,0.66 4.22,-2.21 0.43,-0.22 0.94,-0.56 1.37,-0.78l49.16 -23.7c0.45,-0.22 1.03,-0.44 1.5,-0.64l80.67 -43.62c2.2,-1.23 4.44,-2.35 6.95,-3.77l428.81 -286.93c0.34,-0.28 0.83,-0.69 1.17,-0.97 0.34,-0.28 0.81,-0.71 1.15,-1l81.55 -57.74c0.5,-0.38 1.95,-1.46 2.46,-1.83l87.2 -62.8c0.38,-0.26 0.9,-0.61 1.27,-0.87l13.49 -10.08c1.51,-1.06 2.58,-1.71 3.86,-2.57 8.58,-5.82 15.48,-12.81 24.32,-18.54l48.5 -35.08c0.34,-0.28 0.81,-0.7 1.16,-0.99 8.72,-7.08 -6.5,5.09 2.37,-1.92l4.84 -3.73c23.3,-18.25 56.53,-39.89 77.62,-57.39l6.07 -4.65c2.86,-2.02 2.85,-1.88 6.19,-4.52l255.59 -194.43c0.34,-0.28 0.81,-0.71 1.16,-0.99l22.23 -16.35c4.05,-3.58 7.15,-5.75 12.03,-9.4l24.49 -18.36c0.36,-0.27 0.86,-0.65 1.22,-0.92l47.57 -36.01c19.83,-16.38 42.38,-28.57 56.8,-50.34 0.94,-1.41 3.31,-5.03 4.3,-6.41l12.46 -19.68c12.6,-30.75 4.35,-14.88 9.32,-33.54 5.23,-19.66 5.46,-2.49 5.47,-33.72l0 -1.53c0,-12.97 -4.93,-13.83 -6.41,-27.88 -1.12,-10.62 -4.55,-15.64 -8.36,-25.92 -11.15,-30.09 -50.96,-64.91 -82.37,-74.06 -37.02,-10.79 -63.85,-13.64 -100.5,3.09l-37.16 20.7c-22.39,15.89 -65.96,47.67 -86.44,65.71 -0.33,0.29 -0.79,0.73 -1.12,1.02l-65.82 49.91c-0.35,0.27 -0.86,0.66 -1.21,0.93 -2.12,1.59 -1.59,1.05 -3.81,2.62l-51.31 38.69c-0.36,0.27 -0.85,0.66 -1.21,0.94l-60.6 46.55c-0.36,0.27 -0.87,0.64 -1.23,0.91l-2.46 1.82c-2.01,1.5 -1.67,1.31 -3.68,2.75l-133.32 100.27c-0.34,0.28 -0.81,0.7 -1.16,0.99 -0.34,0.28 -0.82,0.7 -1.17,0.98l-173.72 128.43c-0.35,0.28 -0.81,0.7 -1.16,0.98l-97.53 69.62c-5.02,3.79 -6.14,4.07 -11.62,7.66l-44.45 32.69c-5.93,3.73 -6.1,2.69 -11.96,7.32 -0.85,0.67 -4.02,3.44 -4.62,3.95l-53.38 36.62c-0.38,0.25 -0.91,0.6 -1.29,0.85l-23.99 16.72c-0.38,0.25 -0.92,0.59 -1.3,0.84l-258.1 174.78c-0.38,0.25 -0.92,0.59 -1.3,0.84l-10.4 6.74c-4.59,2.63 -1.66,0.91 -5.31,3.26l-2.56 1.73c-2.14,1.35 -1.71,0.96 -4.06,2.36l-51.16 30.27c-0.41,0.23 -0.94,0.56 -1.35,0.8 -0.4,0.24 -0.93,0.58 -1.33,0.81l-98.04 47.69c-4.49,1.26 -0.92,-0.11 -5.97,2.6 -9,4.83 -39.15,16.44 -50.31,18.27 -11.22,1.84 -15.19,5.77 -29.86,8.71 -8.23,1.65 -7.21,3.35 -14.08,5.21 -6.03,1.64 -10.58,0.69 -17.14,2.15 -21.35,4.74 -0.16,5.26 -37.6,5.26 -10.69,0 -12.01,-3.08 -20.37,-5.34 -4.62,-1.25 -6.17,-0.79 -10.54,-2.32 -2.28,-0.8 -5.15,-2.75 -8.6,-4.26l-26.24 -12.33c-7.02,-4.05 0.33,-0.61 -8.75,-4.11 -14.05,-5.4 -53.07,-28.7 -67.55,-37.46l-100.26 -54.04c-3.35,-1.65 -5.44,-2.16 -8.98,-3.88l-45.97 -20.46c-12.74,-3.95 -24.26,-11.81 -36.72,-14.71 -7.18,-1.67 -2.83,-0.42 -9.38,-3.48 -3.66,-1.71 -0.26,-0.59 -4.45,-1.98l-15.31 -3.97c-23.49,-10.18 -42.78,-11.42 -50.22,-14.07l-42.76 -10.82c-11.08,-3.7 -26.99,0.02 -46.36,-5.07l-48.33 -3.24c-10.21,-0.25 -11.73,2.22 -23.44,2.3 -11.46,0.07 -14.98,-0.74 -23.92,1.8 -12.39,3.53 -41.74,2.16 -71.61,7.68 -17.75,3.28 -29.07,0.12 -44.53,6.9 -10.99,4.82 -10.17,1.86 -22.83,2.88 -9.46,0.77 -11.54,4.56 -19.83,5.89l-105.63 25.09c-13.84,6.35 -37.83,10.99 -48.56,15.72 -4.95,2.18 -2.18,1.4 -9.46,3.4 -13.75,3.76 -25.16,10.52 -38.81,14.76l-38.41 15.17c-0.53,0.17 -1.1,0.35 -1.6,0.54 -0.48,0.18 -1.02,0.45 -1.48,0.66 -4.66,2.1 1,-0.2 -4.04,2.39l-30.75 14.25c-13.68,7.34 -29.38,12.33 -43.16,21.12l-37.91 22.09c-11.17,7.78 -24.44,13.7 -34.92,22.94 -2.65,2.34 -0.63,0.75 -3.39,3.04 -2.56,2.13 -5.84,4.39 -8.47,6.53l-42.06 35.08c-5.13,5.34 -8.85,9.41 -13.64,14.22 -1.8,1.81 -4.55,4.25 -6.66,6.2l-6.88 5.98c-3.68,2.89 -3.68,2.53 -7.13,5.72 -0.32,0.3 -0.79,0.73 -1.1,1.04l-65.55 75.89c-0.27,0.35 -0.66,0.86 -0.94,1.2l-62.58 89.57c-0.35,0.59 -2.01,3.06 -2.57,3.86l-29.14 50.15c-14.11,22.59 -26.14,48.22 -37.34,71.95l-19.35 44.94c-0.69,1.45 -2.3,3.99 -2.35,4.08l-5.8 15.63c-3.24,6.55 -1.26,-0.73 -4.17,8.69l-35.92 107.66c-1.11,4.68 -0.62,5.51 -2.06,10.8l-6.12 19.6c-1.8,12.11 0.17,3.73 -3.52,11.48l-10.78 40.65c-2.25,13.06 0.56,9.88 -4.42,21.29 -4.8,10.99 -0.99,11.38 -3.81,21.9 -2.78,10.36 -4.14,4.62 -5.69,20.03 -1.69,16.83 -7.5,26.04 -8.31,43.12 -0.73,15.38 -3.08,10.56 -5.64,22.22 -1.81,8.21 -0.08,15.12 -1.98,23.73 -2.25,10.19 -3.68,8.77 -5.67,20.05l-5.45 33.13c-3.71,12.93 -0.7,22.8 -4.21,34.36 -4.89,16.14 -6.5,36.44 -10.74,53.55 -3.42,13.83 -0.97,23.65 -5.51,35.21 -4.31,10.95 -3.14,8.31 -3.72,22 -0.5,11.86 -3.03,11.42 -5.4,20.32 -2.53,9.49 -3.2,24.46 -6.23,32.34 -4.86,12.64 -2.09,20.55 -6.93,31.64 -3.95,9.05 -3.85,22.34 -7.47,31.1l-12.52 53.91c-1.56,3.96 -2.56,4.45 -3.71,9.15l-10.16 43.41c-1.53,5.57 -2.25,4.14 -3.88,8.97 -2.93,8.64 -0.66,11.46 -4.74,20.98l-8.77 29.8c-3.42,7.17 -2.79,1.51 -3.02,11.97l-4.29 0c-2.15,-8.06 -10.62,-16.3 -15.16,-23.41l-22.52 -31.05c-0.3,-0.32 -0.74,-0.78 -1.04,-1.1 -0.3,-0.32 -0.74,-0.78 -1.04,-1.1l-14.01 -13.84c-2.22,-2.3 -3.03,-3.47 -5.1,-5.62l-55 -43.57c-3.46,-2.37 -7.25,-5.73 -11.04,-8.24 -3.93,-2.6 -1.55,-0.93 -5.38,-3.19l-45.74 -24.98c-6,-3.03 -7.43,-2.13 -13.75,-5.53l-19.72 -8.14c-4.19,-1.9 -3.24,-1.85 -7.53,-3.19 -14.41,-4.51 -28.14,-10.99 -43.42,-14.44 -7.65,-1.73 -11.82,-0.31 -18.75,-2.68 -7.3,-2.5 -4.77,-4.09 -14.4,-4.89 -6.82,-0.57 -11.27,0.31 -18.44,-0.85 -45.58,-7.35 -59.58,-7.75 -110.11,-7.75 0.87,-10.46 1.52,-19.07 2.12,-32.17 0.5,-10.9 3.85,-19.96 5.63,-30.8 3.57,-21.71 1.28,-45.67 5.7,-67.16 3.32,-16.13 4.77,-76.45 5.86,-101.29 0.55,-12.64 4.26,-17.86 4.26,-32.17l0 -160.72c0,-18.19 -6.38,-31.64 -6.49,-49.23 -0.07,-10.78 -0.62,-17.42 -1.89,-25.97l-21.31 -107.27c-2.43,-6.88 -2.32,-3.07 -4.85,-10.15 -1.53,-4.31 -1.05,-5.46 -2.46,-10.4 -1.61,-5.61 -2.72,-5.54 -4.59,-10.41l-25.01 -60.7c-12,-24.73 -20.07,-33.51 -33.15,-52.57l-9.88 -13.7c-11.38,-13.6 -21.4,-28.59 -35.69,-39.32 -5.44,-4.09 -3.02,-1.77 -8.13,-6.86l-7.47 -7.53c-2.55,-2.31 -5.99,-4.62 -8.36,-6.64l-72.72 -49.43c-0.43,-0.22 -0.98,-0.51 -1.43,-0.72l-53.03 -21.97c-4.43,-1.32 -7.72,-0.7 -12.95,-2.05 -6.23,-1.62 -5.31,-2.35 -10.91,-4.09l-48.17 -9.69c-8.79,-0.05 -19.32,0.71 -27.9,0.04 -10.37,-0.81 -13.71,-4.22 -25.78,-4.22l-32.14 0c-7.56,0 -12.57,4.52 -32.16,4.27l-67.01 10.14c-10.09,3.1 -24.58,4.07 -31.43,7.14 -17.95,8.06 -12.58,1.24 -28.36,8.07 -4.5,1.95 0.46,0.51 -6.22,2.35 -2.32,0.64 -7.61,1.47 -8.97,1.74l-29.94 8.63c-6.86,2.72 -1.01,0.88 -5.67,2.9l-3.07 1.22c-12.63,4.17 -18.78,9.26 -35.74,9.26 0,-13.44 2.37,-18.24 5.1,-29.19 1.68,-6.73 2.78,-26 3.36,-33.07 1.61,-19.53 6.54,-24.06 6.54,-64.18 0,-39.44 4.42,-96.92 -5.06,-134.23 -2.92,-11.47 -1.96,-28.39 -5.31,-39.69 -3.33,-11.26 -4.18,-8.43 -4.6,-23.26 -0.35,-12.27 -11.99,-42.77 -14.4,-56.32l-3.24 -11.76c-2.96,-6.4 -1.94,-2.07 -3.51,-9.34l-5.83 -15.6c-1.02,-2.51 -0.72,-2.36 -1.47,-4.96l-32.26 -68.46c-0.68,-1.11 -1.43,-2.15 -2.43,-4l-19.24 -30.04c-0.26,-0.37 -0.65,-0.86 -0.91,-1.23l-37.22 -46.35c-11.24,-12.7 -25.73,-28.03 -39.5,-37.65l-27 -22.29c-0.38,-0.26 -0.89,-0.62 -1.26,-0.88 -0.37,-0.26 -0.87,-0.64 -1.24,-0.9l-71.29 -44.43c-3.99,-2.37 -1.53,-1.17 -5.4,-3.17 -15.81,-8.18 -30.82,-17.21 -47.93,-22.79l-62.72 -23c-9.53,-1.98 -10.28,-4.66 -21.64,-6.22 -11.82,-1.63 -1.87,0.09 -11,-4 -6.8,-3.05 -14.03,-2.68 -22.41,-5.45 -14.1,-4.68 -36.31,-5.19 -48.61,-9.25 -8.57,-2.83 -14.46,-2.2 -25.25,-2.61 -38.99,-1.47 -19,-25.02 -24.08,-61.63 -2.04,-14.68 -5.82,-34.18 -6,-49.71 -0.32,-26.69 -3.49,-51.71 -7.27,-78.44 -1.24,-8.74 -0.66,-17.24 -2.02,-25.84 -1.6,-10.12 -4.85,-15.69 -5.53,-24.47l-7.05 -48.66c-1.14,-8.59 -4.32,-12.86 -6.44,-21.42 -3.6,-14.5 -5.01,-31.93 -11.24,-46.63l-6.01 -21.85c-1.79,-5.62 -1.61,-2.52 -3.87,-8.98 -1.93,-5.53 -1,-6.08 -2.51,-12.49 -1.21,-5.14 -2.16,-5.38 -4.24,-10.76 -10.62,-27.52 -8.46,-20.94 -24.42,-46.29l-47.67 -38.05 -19.72 -8.14c-13.06,-6.2 -6.05,-3.2 -23.03,-4.83 -8.9,-0.86 -15.12,-3.96 -26.04,-3.96 -4.54,0 -6.34,2.81 -11.27,3.73 -17.62,3.29 -7.18,-2.59 -28.55,5.74 -4.99,1.94 -8.18,1.6 -13.42,3.72l-57.8 47.21c-25.73,39.52 -16.57,35.58 -24.24,57.2 -1.84,5.2 -4.01,6.02 -4.01,13.13zm-644.17 1127.09c-167.22,232.24 -221.58,510.17 -79.62,549.53 141.96,39.37 282,-50.48 415.79,-282.73 133.79,-232.24 369.25,-733.52 350.71,-780.55 -18.53,-47.03 -519.66,281.5 -686.88,513.75zm487.13 2689.71c100.6,43.2 293.3,-22.54 490.44,-205.37 327.4,-303.63 1033.97,-1272.89 787.37,-1246.28 -95.06,10.26 -178.95,97.6 -449.54,313.92 -498.2,398.26 -1214.01,972.11 -828.27,1137.74z"/>
 </g>
</svg>
