<svg width="153" height="39" viewBox="0 0 153 39" fill="none" xmlns="http://www.w3.org/2000/svg">
<path d="M142 39V30H151V39H142Z" fill="#FF8A56"/>
<path d="M3.45216 15.56C3.1133 14.8947 3.5966 14.1062 4.34324 14.1062H7.75433C8.13786 14.1062 8.48761 14.3255 8.65459 14.6708L15.4984 28.8227C15.8625 29.5755 16.9348 29.5755 17.2989 28.8227L24.1427 14.6708C24.3097 14.3255 24.6594 14.1062 25.043 14.1062H28.2434C28.9866 14.1062 29.4701 14.8881 29.1381 15.5529L18.8614 36.1326C18.6921 36.4716 18.3457 36.6859 17.9667 36.6859H14.8251C14.449 36.6859 14.1047 36.4748 13.934 36.1397L3.45216 15.56ZM0 15.1062C0 14.5539 0.447715 14.1062 1 14.1062H4.4825C5.01113 14.1062 5.44845 14.5176 5.48065 15.0453L6.4094 30.2655V35.6859C6.4094 36.2381 5.96169 36.6859 5.4094 36.6859H0.999999C0.447715 36.6859 0 36.2381 0 35.6859V15.1062ZM27.3166 15.0453C27.3488 14.5176 27.7861 14.1062 28.3148 14.1062H31.8187C32.371 14.1062 32.8187 14.5539 32.8187 15.1062V35.6859C32.8187 36.2381 32.371 36.6859 31.8187 36.6859H27.3879C26.8356 36.6859 26.3879 36.2381 26.3879 35.6859V30.2655L27.3166 15.0453Z" fill="black"/>
<path d="M72.597 23.6781C72.5399 24.7326 72.3255 25.7717 71.9539 26.7952C71.5824 27.8187 71.0179 28.744 70.2605 29.5711C69.5174 30.3982 68.567 31.0599 67.4095 31.5562C66.2519 32.0524 64.8514 32.3005 63.208 32.3005C62.2791 32.3005 61.4431 32.1816 60.7 31.9438C59.9569 31.7061 59.3281 31.3701 58.8136 30.9358C58.2991 30.4913 57.9204 29.9588 57.6775 29.3385C57.4345 28.7182 57.3488 28.0203 57.4203 27.2449L58.5135 18.3123H62.8007L62.2648 22.7786L61.7289 27.2449C61.6432 27.7825 61.6503 28.2219 61.7504 28.5631C61.8647 28.9043 62.0362 29.1679 62.2648 29.354C62.5078 29.5401 62.7793 29.6745 63.0794 29.7572C63.3938 29.8296 63.701 29.8658 64.0011 29.8658C64.6871 29.8658 65.3159 29.7107 65.8875 29.4005C66.4592 29.0904 66.9522 28.6613 67.3666 28.1134C67.7811 27.5654 68.1097 26.9244 68.3527 26.1904C68.5956 25.446 68.7314 24.6447 68.76 23.7866C68.86 22.4116 68.7671 21.1399 68.4813 19.9717C68.2098 18.8034 67.7382 17.7592 67.0665 16.839C66.4091 15.9086 65.5517 15.1228 64.4942 14.4818C63.4367 13.8305 62.1791 13.3342 60.7214 12.993C59.2638 12.6415 57.5989 12.4658 55.7268 12.4658C53.969 12.4658 52.347 12.6622 50.8608 13.0551C49.3889 13.448 48.067 14.0114 46.8951 14.7455C45.7376 15.4795 44.7372 16.3583 43.8941 17.3818C43.0652 18.395 42.4078 19.5271 41.9219 20.7781C41.4503 22.0187 41.1717 23.3524 41.0859 24.7791C40.9859 26.2783 41.0931 27.643 41.4075 28.8733C41.7362 30.1036 42.2578 31.184 42.9723 32.1144C43.7011 33.0553 44.6086 33.841 45.6947 34.4717C46.7808 35.1023 48.0455 35.5779 49.4889 35.8984C50.9323 36.2189 52.54 36.3791 54.312 36.3791C55.5553 36.3791 56.82 36.2758 58.1062 36.069C58.9736 35.938 59.7488 35.7816 60.4319 35.6C60.9648 35.4583 61.5343 35.7301 61.7177 36.2501L61.8986 36.7635C62.0699 37.2492 61.8452 37.7893 61.36 37.962C60.5256 38.2589 59.5554 38.4911 58.4492 38.6588C56.9629 38.8863 55.5553 39 54.2263 39C51.954 39 49.8819 38.7984 48.0098 38.3952C46.152 38.0023 44.5086 37.413 43.0795 36.6273C41.6504 35.8519 40.4571 34.8904 39.4996 33.7428C38.5565 32.5952 37.8562 31.2718 37.3989 29.7727C36.9559 28.2736 36.7844 28.3736 36.8844 26.5436C36.9845 24.8481 37.3489 21.4863 37.9777 19.9872C38.6065 18.4881 39.4639 17.1285 40.55 15.9086C41.6361 14.6886 42.9366 13.6392 44.4514 12.7604C45.9805 11.8713 47.6954 11.1889 49.5961 10.7134C51.4967 10.2378 53.5689 10 55.8125 10C58.0419 10 60.064 10.2119 61.879 10.6358C63.7082 11.0597 65.3088 11.6697 66.6807 12.4658C68.0526 13.2515 69.1958 14.2078 70.1104 15.3348C71.0251 16.4513 71.6896 17.7127 72.104 19.1187C72.5184 20.5248 72.6828 22.0446 72.597 23.6781ZM50.9465 25.3064C50.8751 25.9888 50.8822 26.5936 50.968 27.1209C51.0537 27.6481 51.2181 28.0927 51.461 28.4545C51.704 28.8164 52.0183 29.0904 52.4042 29.2765C52.8043 29.4522 53.2759 29.5401 53.819 29.5401C54.1191 29.5401 54.4478 29.4884 54.805 29.385C55.1623 29.2713 55.5267 29.0852 55.8983 28.8267C56.2698 28.5683 56.62 28.2116 56.9487 27.7567C57.2916 27.2914 57.5775 26.7073 57.8061 26.0043L59.0743 27.0945C59.4042 27.3781 59.5182 27.8454 59.3174 28.2314C59.0528 28.7398 58.7491 29.2019 58.4063 29.6176C57.9204 30.1966 57.3631 30.6825 56.7343 31.0754C56.1198 31.4683 55.4481 31.7629 54.7193 31.9594C53.9905 32.1558 53.2045 32.254 52.3613 32.254C51.3181 32.254 50.3892 32.0938 49.5746 31.7733C48.7601 31.4424 48.0812 30.972 47.5382 30.362C46.9951 29.752 46.6022 29.0232 46.3592 28.1754C46.1306 27.3173 46.0877 26.361 46.2306 25.3064C46.3878 24.2519 46.6736 23.2749 47.088 22.3754C47.5025 21.4759 48.0169 20.6747 48.6314 19.9717C49.2459 19.2583 49.9462 18.6535 50.7322 18.1572C51.5325 17.6506 52.3971 17.2681 53.326 17.0096C54.2549 16.7512 55.2266 16.6219 56.2413 16.6219C57.8847 16.6219 59.178 16.7925 60.1212 17.1337C61.0644 17.4749 61.9576 17.8677 62.8007 18.3123L62.696 19.1852C62.6078 19.92 61.7017 20.462 60.9911 20.2553C60.2037 20.0264 59.3435 19.7939 58.9851 19.6615C58.3277 19.403 57.5417 19.2738 56.6271 19.2738C55.784 19.2738 55.0408 19.403 54.3978 19.6615C53.769 19.92 53.2188 20.3077 52.7472 20.8246C52.2899 21.3312 51.9112 21.9619 51.6111 22.7166C51.311 23.461 51.0894 24.3242 50.9465 25.3064Z" fill="black"/>
<path d="M82.6061 14.1062C82.9219 14.1062 83.2191 14.2553 83.4078 14.5085L88.1797 20.9089C88.5796 21.4453 89.3832 21.4453 89.7831 20.9089L94.555 14.5085C94.7437 14.2553 95.0409 14.1062 95.3567 14.1062H100.111C100.952 14.1062 101.417 15.0817 100.888 15.7355L93.652 24.6707C93.3538 25.039 93.355 25.566 93.6548 25.9329L101.109 35.053C101.642 35.706 101.178 36.6859 100.334 36.6859H95.5254C95.2112 36.6859 94.9153 36.5382 94.7263 36.2871L89.7804 29.7145C89.3804 29.1829 88.5824 29.1829 88.1823 29.7145L83.2364 36.2871C83.0475 36.5382 82.7516 36.6859 82.4374 36.6859H77.5885C76.7446 36.6859 76.2801 35.705 76.8149 35.0522L84.2846 25.9338C84.5854 25.5666 84.5866 25.0384 84.2874 24.6698L77.0358 15.7364C76.5052 15.0828 76.9703 14.1062 77.8122 14.1062H82.6061Z" fill="black"/>
<path d="M58.3722 19.4671L59.4928 23.2242C59.5785 23.5115 59.5308 23.8221 59.3628 24.0704L57.4655 26.8751C57.5904 26.6086 57.704 26.3183 57.8061 26.0043L59.0743 27.0945C59.4042 27.3781 59.5182 27.8454 59.3174 28.2314C59.0528 28.7398 58.7491 29.2019 58.4063 29.6176C58.2852 29.762 58.1596 29.9006 58.0295 30.0334C57.638 30.4332 57.2063 30.7805 56.7343 31.0754C56.1198 31.4683 55.4481 31.7629 54.7193 31.9594C53.9905 32.1558 53.2045 32.254 52.3613 32.254C51.3181 32.254 50.3892 32.0938 49.5746 31.7733C48.7601 31.4424 48.0812 30.972 47.5382 30.362C46.9951 29.752 46.6022 29.0232 46.3592 28.1754C46.1306 27.3173 46.0877 26.361 46.2306 25.3064C46.3878 24.2519 46.6736 23.2749 47.088 22.3754C47.5025 21.4759 48.0169 20.6747 48.6314 19.9717C49.2459 19.2583 49.9462 18.6535 50.7322 18.1572C51.5325 17.6506 52.3971 17.2681 53.326 17.0096C54.2549 16.7512 55.2266 16.6219 56.2413 16.6219C57.8847 16.6219 59.178 16.7925 60.1212 17.1337C61.0644 17.4749 61.9576 17.8677 62.8007 18.3123L62.696 19.1852C62.6078 19.92 61.7017 20.462 60.9911 20.2553C60.2037 20.0264 59.3435 19.7939 58.9851 19.6615C58.7919 19.5855 58.5876 19.5207 58.3722 19.4671Z" fill="black"/>
<path d="M139.978 23.6781C139.921 24.7326 139.706 25.7717 139.335 26.7952C138.963 27.8187 138.399 28.744 137.641 29.5711C136.898 30.3982 135.948 31.0599 134.79 31.5562C133.633 32.0524 132.232 32.3005 130.589 32.3005C129.66 32.3005 128.824 32.1816 128.081 31.9438C127.338 31.7061 126.709 31.3701 126.195 30.9358C125.68 30.4913 125.301 29.9588 125.058 29.3385C124.815 28.7182 124.73 28.0203 124.801 27.2449L123.419 22.8217C123.33 22.5389 123.372 22.2314 123.532 21.9822L125.894 18.3123H130.182L129.11 27.2449C129.024 27.7825 129.031 28.2219 129.131 28.5631C129.246 28.9043 129.417 29.1679 129.646 29.354C129.889 29.5401 130.16 29.6745 130.46 29.7572C130.775 29.8296 131.082 29.8658 131.382 29.8658C132.068 29.8658 132.697 29.7107 133.268 29.4005C133.84 29.0904 134.333 28.6613 134.748 28.1134C135.162 27.5654 135.491 26.9244 135.734 26.1904C135.977 25.446 136.112 24.6447 136.141 23.7866C136.241 22.4116 136.148 21.1399 135.862 19.9717C135.591 18.8034 135.119 17.7592 134.447 16.839C133.79 15.9086 132.933 15.1228 131.875 14.4818C130.818 13.8305 129.56 13.3342 128.102 12.993C126.645 12.6415 124.98 12.4658 123.108 12.4658C121.35 12.4658 119.728 12.6622 118.242 13.0551C116.77 13.448 115.448 14.0114 114.276 14.7455C113.118 15.4795 112.118 16.3583 111.275 17.3818C110.446 18.395 109.789 19.5271 109.303 20.7781C108.831 22.0187 108.553 23.3524 108.467 24.7791C108.367 26.2783 108.474 27.643 108.788 28.8733C109.117 30.1036 109.639 31.184 110.353 32.1144C111.082 33.0553 111.99 33.841 113.076 34.4717C114.162 35.1023 115.426 35.5779 116.87 35.8984C118.313 36.2189 119.921 36.3791 121.693 36.3791C122.936 36.3791 124.201 36.2758 125.487 36.069C126.355 35.938 127.13 35.7816 127.813 35.6C128.346 35.4583 128.915 35.7301 129.099 36.2501L129.28 36.7635C129.451 37.2492 129.226 37.7893 128.741 37.962C127.907 38.2589 126.936 38.4911 125.83 38.6588C124.344 38.8863 122.936 39 121.607 39C119.335 39 117.263 38.7984 115.391 38.3952C113.533 38.0023 111.889 37.413 110.46 36.6273C109.031 35.8519 107.838 34.8904 106.881 33.7428C105.937 32.5952 105.237 31.2718 104.78 29.7727C104.337 28.2736 104.165 28.3736 104.265 26.5436C104.365 24.8481 104.73 21.4863 105.359 19.9872C105.987 18.4881 106.845 17.1285 107.931 15.9086C109.017 14.6886 110.317 13.6392 111.832 12.7604C113.361 11.8713 115.076 11.1889 116.977 10.7134C118.878 10.2378 120.95 10 123.193 10C125.423 10 127.445 10.2119 129.26 10.6358C131.089 11.0597 132.69 11.6697 134.062 12.4658C135.433 13.2515 136.577 14.2078 137.491 15.3348C138.406 16.4513 139.07 17.7127 139.485 19.1187C139.899 20.5248 140.064 22.0446 139.978 23.6781ZM118.327 25.3064C118.256 25.9888 118.263 26.5936 118.349 27.1209C118.435 27.6481 118.599 28.0927 118.842 28.4545C119.085 28.8164 119.399 29.0904 119.785 29.2765C120.185 29.4522 120.657 29.5401 121.2 29.5401C121.5 29.5401 121.829 29.4884 122.186 29.385C122.543 29.2713 122.908 29.0852 123.279 28.8267C123.651 28.5683 124.001 28.2116 124.33 27.7567C124.673 27.2914 124.958 26.7073 125.187 26.0043L126.455 27.0945C126.785 27.3781 126.899 27.8454 126.698 28.2314C126.434 28.7398 126.13 29.2019 125.787 29.6176C125.301 30.1966 124.744 30.6825 124.115 31.0754C123.501 31.4683 122.829 31.7629 122.1 31.9594C121.371 32.1558 120.585 32.254 119.742 32.254C118.699 32.254 117.77 32.0938 116.956 31.7733C116.141 31.4424 115.462 30.972 114.919 30.362C114.376 29.752 113.983 29.0232 113.74 28.1754C113.511 27.3173 113.469 26.361 113.612 25.3064C113.769 24.2519 114.055 23.2749 114.469 22.3754C114.883 21.4759 115.398 20.6747 116.012 19.9717C116.627 19.2583 117.327 18.6535 118.113 18.1572C118.913 17.6506 119.778 17.2681 120.707 17.0096C121.636 16.7512 122.608 16.6219 123.622 16.6219C125.266 16.6219 126.559 16.7925 127.502 17.1337C128.445 17.4749 129.338 17.8677 130.182 18.3123L128.567 19.8811C128.232 20.2063 127.718 20.253 127.298 20.0513C127.021 19.9187 126.71 19.7887 126.366 19.6615C125.709 19.403 124.923 19.2738 124.008 19.2738C123.165 19.2738 122.422 19.403 121.779 19.6615C121.15 19.92 120.6 20.3077 120.128 20.8246C119.671 21.3312 119.292 21.9619 118.992 22.7166C118.692 23.461 118.47 24.3242 118.327 25.3064Z" fill="black"/>
<path d="M125.753 19.4671L124.846 26.8751C124.971 26.6086 125.085 26.3183 125.187 26.0043L126.455 27.0945C126.785 27.3781 126.899 27.8454 126.698 28.2314C126.434 28.7398 126.13 29.2019 125.787 29.6176C125.666 29.762 125.54 29.9006 125.41 30.0334C125.019 30.4332 124.587 30.7805 124.115 31.0754C123.501 31.4683 122.829 31.7629 122.1 31.9594C121.371 32.1558 120.585 32.254 119.742 32.254C118.699 32.254 117.77 32.0938 116.956 31.7733C116.141 31.4424 115.462 30.972 114.919 30.362C114.376 29.752 113.983 29.0232 113.74 28.1754C113.511 27.3173 113.469 26.361 113.612 25.3064C113.769 24.2519 114.055 23.2749 114.469 22.3754C114.883 21.4759 115.398 20.6747 116.012 19.9717C116.627 19.2583 117.327 18.6535 118.113 18.1572C118.913 17.6506 119.778 17.2681 120.707 17.0096C121.636 16.7512 122.608 16.6219 123.622 16.6219C125.266 16.6219 126.559 16.7925 127.502 17.1337C128.445 17.4749 129.338 17.8677 130.182 18.3123L128.567 19.8811C128.232 20.2063 127.718 20.253 127.298 20.0513C127.021 19.9187 126.71 19.7887 126.366 19.6615C126.173 19.5855 125.968 19.5207 125.753 19.4671Z" fill="black"/>
</svg>
