<svg width="70" height="71" viewBox="0 0 70 71" fill="none" xmlns="http://www.w3.org/2000/svg">
<g clip-path="url(#clip0_13_28)">
<path d="M35.339 70.0949C26.7405 70.0949 18.4941 66.4165 12.4141 59.8687C6.33396 53.3209 2.91821 44.4403 2.91821 35.1803C2.91821 25.9203 6.33396 17.0397 12.4141 10.4919C18.4941 3.94413 26.7405 0.265626 35.339 0.265625V35.1803V70.0949Z" fill="url(#paint0_linear_13_28)"/>
<path d="M53.8178 52.5589C49.5379 52.5589 45.4333 50.728 42.407 47.4689C39.3806 44.2097 37.6805 39.7893 37.6805 35.1803C37.6805 30.5712 39.3806 26.1509 42.407 22.8918C45.4333 19.6326 49.5379 17.8016 53.8178 17.8016V35.1803V52.5589Z" fill="url(#paint1_linear_13_28)"/>
<path d="M32.4208 70.0949C23.8223 70.0949 15.5759 66.4165 9.49582 59.8687C3.41575 53.3209 2.733e-07 44.4403 0 35.1803C-2.733e-07 25.9203 3.41575 17.0397 9.49582 10.4919C15.5759 3.94413 23.8223 0.265626 32.4208 0.265625V35.1803V70.0949Z" fill="black"/>
<path d="M50.8996 52.5589C46.6197 52.5589 42.5151 50.728 39.4888 47.4689C36.4624 44.2097 34.7622 39.7893 34.7622 35.1803C34.7622 30.5712 36.4624 26.1509 39.4888 22.8918C42.5151 19.6326 46.6197 17.8016 50.8996 17.8016V35.1803V52.5589Z" fill="black"/>
</g>
<defs>
<linearGradient id="paint0_linear_13_28" x1="19.1286" y1="-5.57493" x2="19.3954" y2="62.3792" gradientUnits="userSpaceOnUse">
<stop offset="0.197917" stop-color="#B16CEA"/>
<stop offset="0.557292" stop-color="#FF5E69"/>
<stop offset="0.828125" stop-color="#FF8A56"/>
<stop offset="1" stop-color="#FFA84B"/>
</linearGradient>
<linearGradient id="paint1_linear_13_28" x1="45.7491" y1="14.8945" x2="45.8819" y2="48.7185" gradientUnits="userSpaceOnUse">
<stop offset="0.197917" stop-color="#B16CEA"/>
<stop offset="0.557292" stop-color="#FF5E69"/>
<stop offset="0.828125" stop-color="#FF8A56"/>
<stop offset="1" stop-color="#FFA84B"/>
</linearGradient>
<clipPath id="clip0_13_28">
<rect width="70" height="70" fill="white" transform="translate(0 0.265625)"/>
</clipPath>
</defs>
</svg>
