<?xml version="1.0" encoding="UTF-8"?>
<svg xmlns="http://www.w3.org/2000/svg" xmlns:xlink="http://www.w3.org/1999/xlink" viewBox="0 0 24 24" width="24px" height="24px">
<g id="surface98435812">
<path style=" stroke:none;fill-rule:nonzero;fill:rgb(100%,100%,100%);fill-opacity:1;" d="M 7.160156 1.5 C 4.042969 1.5 1.5 4.042969 1.5 7.160156 L 1.5 15.347656 C 1.5 18.457031 4.042969 21 7.160156 21 L 15.347656 21 C 18.457031 21 21 18.457031 21 15.339844 L 21 7.160156 C 21 4.042969 18.457031 1.5 15.339844 1.5 Z M 7.160156 3 L 15.339844 3 C 17.648438 3 19.5 4.851562 19.5 7.160156 L 19.5 15.339844 C 19.5 17.648438 17.648438 19.5 15.347656 19.5 L 7.160156 19.5 C 4.851562 19.5 3 17.648438 3 15.347656 L 3 7.160156 C 3 4.851562 4.851562 3 7.160156 3 Z M 17.25 4.5 C 16.832031 4.5 16.5 4.832031 16.5 5.25 C 16.5 5.667969 16.832031 6 17.25 6 C 17.667969 6 18 5.667969 18 5.25 C 18 4.832031 17.667969 4.5 17.25 4.5 Z M 11.25 6 C 8.359375 6 6 8.359375 6 11.25 C 6 14.140625 8.359375 16.5 11.25 16.5 C 14.140625 16.5 16.5 14.140625 16.5 11.25 C 16.5 8.359375 14.140625 6 11.25 6 Z M 11.25 7.5 C 13.332031 7.5 15 9.167969 15 11.25 C 15 13.332031 13.332031 15 11.25 15 C 9.167969 15 7.5 13.332031 7.5 11.25 C 7.5 9.167969 9.167969 7.5 11.25 7.5 Z M 11.25 7.5 "/>
</g>
</svg>
